<?xml version="1.0"?>
<svg xmlns="http://www.w3.org/2000/svg" width="764" height="900" viewBox="0 0 764 900" fill="none">
<g clip-path="url(#clip0)">
<path d="M356.51 650.88C306.55 746.77 188.32 784 92.4399 734L139.52 643.63C150.451 649.326 162.397 652.813 174.676 653.893C186.955 654.972 199.326 653.622 211.084 649.92C222.841 646.219 233.754 640.237 243.2 632.318C252.645 624.399 260.439 614.696 266.135 603.765C271.831 592.834 275.318 580.888 276.398 568.609C277.477 556.33 276.127 543.958 272.425 532.201C268.723 520.444 262.742 509.531 254.823 500.085C246.903 490.64 237.201 482.846 226.27 477.15L273.36 386.78C369.24 436.78 406.47 554.97 356.51 650.85" fill="#FFC000"/>
<path d="M309.05 410.69V677.91C309.045 687.676 310.346 697.399 312.92 706.82C330.743 690.991 345.517 672.031 356.51 650.88C399.69 568 377.72 468.44 309.05 410.69Z" fill="#FFA200"/>
<path d="M625.91 373C606.8 421 640.28 567.22 644.34 593.33C647.58 614.12 649.2 628.21 649.2 643.64C649.2 650.48 653.8 680.86 653.8 680.86C653.8 680.86 679.92 694.61 688.33 691.26C696.74 687.91 702.56 677.17 702.56 677.17C702.56 677.17 697.71 638.94 699.65 611.44C698.36 462.54 696.9 426.86 687.04 360.59C684.49 343.51 633.06 355.08 625.91 373Z" fill="#E8A984"/>
<path d="M637.05 558L641.27 576.57C641.27 576.57 653.56 566.3 662.87 565.79C696.5 563.92 699.37 580.36 699.37 580.36L699.51 541.81L637.05 558Z" fill="#BF5C43"/>
<path d="M602.78 608.79C607.95 638.3 606.25 668.57 606.25 668.57C606.25 668.57 583.33 678.88 566.83 676.87C555.23 675.45 553.62 668.06 553.62 668.06C553.62 668.06 554.91 649.06 549.74 623.54C540.68 538.36 532.92 440.44 535.5 408.91C541.32 338.02 598.69 354.37 599.5 362.63C616.36 525 601.9 546.58 602.78 608.79Z" fill="#E8A984"/>
<path d="M544 566.92C544 566.92 558.3 566.43 572.15 566.68C597.6 567.15 602.95 590.83 602.95 590.83L606.33 548.32L542.65 553.88L544 566.92Z" fill="#BF5C43"/>
<path d="M717.52 558.35C714.52 494.71 699.95 399.41 697.52 388.97C685.35 337.64 680.52 332.97 672.3 311.44H561.35C538.58 359.34 529.98 399.55 522.74 466.89C517.64 514.2 516.15 531.26 514.97 550.36C514.97 550.36 555.72 562.43 569.31 563.77C582.9 565.11 647.31 564.58 673.08 563.34C684.71 562.77 717.52 558.35 717.52 558.35Z" fill="#04454D"/>
<path d="M649.68 674.85C649.68 674.85 646.29 675.36 647.26 683.41C648.51 693.82 660.84 777.47 661.33 806.15C661.39 809.31 661.03 812.88 663.16 815.15C663.85 815.88 664.73 816.39 665.38 817.15C665.734 817.514 665.965 817.979 666.044 818.48C666.123 818.981 666.045 819.495 665.82 819.95C665.425 820.386 664.967 820.76 664.46 821.06C662.98 822.25 662.79 824.48 662.85 826.42C663.03 833.2 665.28 839.21 665.72 845.89C666.02 850.417 666.334 854.947 666.66 859.48L678.79 869.54L684.13 869.04" stroke="#181F38" stroke-width="1.3" stroke-linecap="round" stroke-linejoin="round"/>
<path d="M672.76 853.87C676.975 856.644 680.432 860.425 682.82 864.87C684.96 868.76 684.63 872.54 686.33 876.6C690.07 885.52 698.92 891.44 707.33 894.86C715.5 898.18 731.53 900.7 737 899.75C744.52 898.46 742.72 884.32 740.8 879.24C738.88 874.16 735.74 869.7 732.8 865.24C725.66 854.52 719.28 843.3 712.9 832.08C712.112 830.992 711.733 829.66 711.83 828.32C712.06 827.22 712.91 826.32 713.32 825.32C713.85 823.94 713.32 822.41 713.26 820.92C709.88 759.92 707.99 719.17 708.42 682.47C708.42 679.64 708.58 675.79 705.89 675.34" stroke="#181F38" stroke-width="1.3" stroke-linecap="round" stroke-linejoin="round"/>
<path d="M599.9 849.63C583.26 855.91 566.46 880.24 561.22 882.4C534.1 893.55 512.17 888.84 508.39 884.14C504.44 879.23 509.9 870.8 519.46 861.84C528.2 853.64 538.33 847 546.39 838C554.81 828.58 555.45 817 555.64 804.53L555.78 796.07C556.538 753.049 554.903 710.019 550.88 667.18" stroke="#181F38" stroke-width="1.3" stroke-linecap="round" stroke-linejoin="round"/>
<path d="M610.47 669C612.99 676 607.95 712.52 607.95 731.65C607.95 762.97 605.59 769.65 606.25 793.16C606.41 798.95 606.44 805.16 603.17 809.9C601.99 811.6 600.31 813.42 600.82 815.45C601.12 816.62 602.09 817.45 602.82 818.45C604.28 820.53 604.47 823.26 604.61 825.83C605.19 836.83 605.53 847.74 606.33 858.65C602.26 860.97 592.83 866.37 592.12 866.57C591.41 866.77 579.85 865.24 579.85 865.24" stroke="#181F38" stroke-width="1.3" stroke-linecap="round" stroke-linejoin="round"/>
<path d="M717.52 558.35C715.3 511.23 706.74 446.76 701.44 412.23C661.58 416.55 630.5 451.45 630.5 493.92C630.415 507.706 633.771 521.295 640.266 533.455C646.76 545.616 656.186 555.963 667.69 563.56C669.63 563.49 671.43 563.41 673.08 563.33C684.71 562.77 717.52 558.35 717.52 558.35Z" fill="#FFC000"/>
<path d="M570.24 394.69C570.305 385.899 567.993 377.253 563.551 369.667C559.108 362.081 552.699 355.835 545 351.59C535.73 378.95 530.12 407.12 525.53 443.25C550.39 442.08 570.24 420.8 570.24 394.69Z" fill="#181F38"/>
<path d="M550.12 181.21C537.32 196.96 518.26 231.45 502.96 247.21C496.21 241.7 486.59 240.91 449.38 206.39C447.874 204.634 446.563 202.719 445.47 200.68C443.93 197.47 442.86 194.05 441.31 191.06C440.59 188.993 439.406 187.119 437.85 185.58C435.216 182.755 431.778 180.807 428 180C423.79 179.21 419.48 180.2 415.21 180.63C413.523 180.883 411.804 180.818 410.14 180.44C408.802 179.997 407.52 179.399 406.32 178.66C403.897 177.339 401.388 176.183 398.81 175.2C397.922 174.803 396.962 174.592 395.99 174.58C395.505 174.586 395.032 174.729 394.625 174.993C394.218 175.256 393.894 175.63 393.69 176.07C393.542 176.538 393.511 177.036 393.6 177.518C393.689 178.001 393.895 178.455 394.2 178.84C391.899 177.976 389.651 176.974 387.47 175.84C385.867 174.864 384.123 174.142 382.3 173.7C381.383 173.492 380.427 173.537 379.533 173.832C378.64 174.126 377.844 174.658 377.23 175.37C375.488 174.215 373.399 173.702 371.32 173.92C369.76 174.1 367.91 175.57 368.76 176.92C367.28 176.69 365.88 176.03 364.39 175.92C362.9 175.81 361.16 176.61 360.91 178.08C360.66 179.55 361.85 180.69 363.03 181.46C364.21 182.23 365.58 182.9 366.17 184.18C366.431 184.978 366.651 185.789 366.83 186.61C367.3 187.99 368.6 188.05 369.73 188.61C371.038 189.318 372.304 190.103 373.52 190.96C375.895 192.623 378.067 194.56 379.99 196.73C380.911 197.887 381.946 198.949 383.08 199.9C384.436 200.815 385.914 201.535 387.47 202.04C396.11 205.29 415.17 212.04 423.21 216.55C426.29 218.29 432.15 223.67 438.21 229.63C455.67 248.43 489.4 294.07 504 296C527.16 296.47 566.19 235 566.19 235C578.78 176.77 550.12 181.21 550.12 181.21Z" fill="#E8A984"/>
<path d="M366.42 185.63C366.06 184.5 367.22 183.35 368.42 183.25C371.27 183 374.65 185.25 376.83 186.8C377.694 187.486 378.596 188.124 379.53 188.71C381.61 189.9 384.2 190.34 385.79 192.13" stroke="#BF5C43" stroke-width="0.75" stroke-linecap="round" stroke-linejoin="round"/>
<path d="M368.86 176.8C372.277 177.953 375.562 179.465 378.66 181.31C379.228 181.694 379.839 182.009 380.48 182.25C381.107 182.42 381.751 182.521 382.4 182.55C384.853 182.789 387.26 183.371 389.55 184.28" stroke="#BF5C43" stroke-width="0.75" stroke-linecap="round" stroke-linejoin="round"/>
<path d="M377.36 175.35C379.933 175.903 382.46 176.648 384.92 177.58" stroke="#BF5C43" stroke-width="0.75" stroke-linecap="round" stroke-linejoin="round"/>
<path d="M398.64 192.58C403.2 193.11 407.54 190.8 411.93 189.41C418.218 187.436 424.944 187.332 431.29 189.11" stroke="#BF5C43" stroke-width="0.75" stroke-linecap="round" stroke-linejoin="round"/>
<path d="M500.74 245.38C503.958 247.837 507.005 250.51 509.86 253.38" stroke="#BF5C43" stroke-width="0.75" stroke-linecap="round" stroke-linejoin="round"/>
<path d="M394.65 179.17C394.65 179.17 406.25 184.11 410.51 183.7C414.77 183.29 414.97 182.39 418.51 182.46" stroke="#BF5C43" stroke-width="0.75" stroke-linecap="round" stroke-linejoin="round"/>
<path d="M671.56 158.09C671.48 153.28 653.06 151.93 648.63 149.85C640.63 146.09 637.41 117.33 637.55 114.26C637.55 114.26 649.83 100.67 653.64 94.3799C657.33 88.5959 659.719 82.0787 660.64 75.2799C661.4 68.4899 660.1 61.3399 656.26 55.6899C652.76 50.5499 649.26 42.5999 643.78 39.7599C634.39 34.9299 605.87 38.1199 603.49 38.6199C592.95 40.8599 583.24 42.8299 577.57 51.2599C575.3 54.6399 575.02 60.6599 574.88 62.2599C574.64 65.0099 575.5 69.8899 574.53 72.9599C574.53 73.0899 572.11 79.5299 571.33 82.9599C570.757 85.4444 570.343 87.9628 570.09 90.4999C569.91 97.4999 570.96 102.08 572.09 109.08C572.36 110.82 573.4 115.45 573.4 117.21C573.527 118.904 574.008 120.553 574.81 122.05C576.55 125.18 581.38 126.05 584.69 126.55C588.678 126.968 592.696 127.002 596.69 126.65C596.85 129.65 596.69 134.7 596.64 138.16L596.45 148.65C596.31 154.57 576.02 151.54 576.04 154.07V161.38C576.04 182.33 590.91 199.31 617.28 199.31C643.65 199.31 671.53 182.31 671.53 161.38L671.56 158.09Z" fill="#E8A984"/>
<path d="M595.3 77.92C594.94 80.31 595.5 82.38 596.55 82.53C597.6 82.68 599.1 78.53 599.1 78.53C599.1 78.53 598.9 74.08 597.84 73.92C596.78 73.76 595.65 75.53 595.3 77.92Z" fill="#181F38"/>
<path d="M576 76.1299C575.69 78.3999 576.05 80.3199 576.81 80.4299C577.57 80.5399 578.75 76.4999 578.75 76.4999C578.75 76.4999 578.69 72.3099 577.94 72.1999C577.19 72.0899 576.34 73.8599 576 76.1299Z" fill="#181F38"/>
<path d="M592.7 66.66C592.746 66.0575 592.909 65.4698 593.18 64.93C593.27 64.73 593.48 64.49 593.69 64.58C593.713 64.6585 593.755 64.73 593.813 64.7878C593.87 64.8455 593.942 64.8876 594.02 64.91C594.712 64.3439 595.588 64.052 596.48 64.0899C597.732 64.2135 598.974 64.4139 600.2 64.69C601.412 64.8435 602.609 65.0943 603.78 65.44C606.082 66.0648 608.184 67.2739 609.88 68.95C610.273 69.3028 610.526 69.7858 610.59 70.31C609.068 69.7501 607.503 69.312 605.91 69C602.55 68.41 599.05 69.37 595.64 69C593.61 68.75 592.66 68 592.7 66.66Z" fill="#181F38"/>
<path d="M579.83 63.8899L579.44 63.7299C578.426 63.2674 577.325 63.0222 576.21 63.0099C575.495 62.9382 574.78 63.1421 574.21 63.5799C573.925 63.8559 573.715 64.2001 573.6 64.5799C573.395 65.1525 573.316 65.763 573.369 66.369C573.423 66.9751 573.607 67.5623 573.91 68.0899C575.91 66.8299 577.77 67.7699 579.73 68.5399C581.31 69.1499 582.33 67.8499 582.16 66.2399C582.077 65.5206 581.815 64.8333 581.4 64.2399C581.24 63.9799 580.99 63.6999 580.69 63.7499C580.56 63.7861 580.433 63.8329 580.31 63.8899C580.153 63.9339 579.987 63.9339 579.83 63.8899Z" fill="#181F38"/>
<path d="M595.73 126.63C596.99 127.05 596.73 127.73 597.14 132.46C597.44 135.98 600.14 135.81 601.8 134.85C608.95 130.79 616.23 118.55 616.23 118.55C613.59 120.547 610.69 122.176 607.61 123.39C603.32 125.16 600.05 126.29 595.73 126.63Z" fill="#BF5C43"/>
<path d="M572.53 93.0699C572.709 93.4221 572.967 93.7277 573.285 93.9621C573.603 94.1965 573.971 94.3533 574.36 94.4199C574.03 94.4199 573.36 93.2799 573.18 93.0199C573 92.7599 572.53 91.7499 572.18 91.5499C572.153 92.0793 572.274 92.6059 572.53 93.0699Z" fill="#BF5C43"/>
<path d="M623.32 101.28C621.32 105.51 624.78 108.28 628.61 105.85C630.36 104.74 631.71 103.06 633.56 102.14" stroke="#BF5C43" stroke-width="1.3" stroke-linecap="round" stroke-linejoin="round"/>
<path d="M582.36 72.8099C581.36 74.5999 580.63 76.4199 579.47 78.1599C578.158 80.1387 576.722 82.0325 575.17 83.8299C573.69 85.5399 572.04 87.3299 572.25 89.7399C572.292 90.8615 572.602 91.9566 573.156 92.9329C573.709 93.9093 574.489 94.7383 575.43 95.3499" stroke="#BF5C43" stroke-width="1.3" stroke-linecap="round" stroke-linejoin="round"/>
<path d="M583.15 101.74C583.98 101.92 584.8 102.17 585.61 102.42C588.05 103.18 590.61 104.12 593.19 103.62C591.39 105.34 588.4 109.93 581.09 110.09C579.02 110.09 576.33 109.48 575.76 107.09C575.704 106.213 575.587 105.341 575.41 104.48C575.129 103.802 574.701 103.194 574.159 102.7C573.616 102.206 572.971 101.837 572.27 101.62C573.515 101.416 574.77 101.276 576.03 101.2C576.77 101.2 577.41 101.68 578.18 101.63C579.37 101.471 580.571 101.418 581.77 101.47C582.234 101.535 582.695 101.626 583.15 101.74Z" fill="#BF5C43"/>
<path d="M578.64 93.88C578.545 93.7871 578.477 93.6701 578.443 93.5414C578.41 93.4128 578.412 93.2774 578.45 93.15C578.637 93.0788 578.839 93.0544 579.037 93.0788C579.236 93.1031 579.426 93.1757 579.59 93.29C579.913 93.5226 580.205 93.7947 580.46 94.1C581.043 94.8641 581.874 95.4015 582.81 95.62C583.393 95.6761 583.976 95.5183 584.45 95.176C584.925 94.8338 585.259 94.3304 585.39 93.76" stroke="#BF5C43" stroke-width="1.3" stroke-linecap="round" stroke-linejoin="round"/>
<path d="M576.2 103.33C576.356 104.141 576.672 104.913 577.13 105.6C577.65 106.02 583.33 106.53 585.6 106.02C587.076 105.67 588.526 105.219 589.94 104.67L576.2 103.33Z" fill="white"/>
<path d="M566.48 154.1C566.48 154.1 566.48 154.1 566.54 154.1C570.54 152.86 569.61 153.16 566.48 154.1Z" fill="#EAF4F2"/>
<path d="M566.48 154C566.48 154 566.48 154 566.54 154C570.54 152.75 569.61 153 566.48 154Z" fill="#EAF4F2"/>
<path d="M7.90039 777.86H402.73C402.73 808.066 390.732 837.036 369.373 858.396C348.015 879.756 319.047 891.757 288.84 891.76H121.84C106.879 891.765 92.0641 888.823 78.2405 883.101C64.4169 877.38 51.8559 868.991 41.2751 858.414C30.6942 847.836 22.3008 835.278 16.5743 821.457C10.8478 807.635 7.90039 792.821 7.90039 777.86Z" fill="white"/>
<path d="M198.507 239.272L171.829 260.107C169.179 262.177 168.708 266.005 170.778 268.655L191.614 295.333C193.684 297.984 197.511 298.455 200.162 296.384L226.84 275.549C229.491 273.478 229.961 269.651 227.891 267.001L207.055 240.323C204.985 237.672 201.158 237.201 198.507 239.272Z" fill="#51E8D4"/>
<path d="M671 335.26L670.91 335.18C670.328 334.624 669.65 334.177 668.91 333.86C667.13 333.23 665.23 334.18 663.48 334.86C660.68 335.97 657.1 335.46 654.12 335.52C653.684 335.501 653.249 335.569 652.84 335.72C652.408 335.955 652.077 336.34 651.911 336.803C651.745 337.266 651.755 337.774 651.94 338.23C652.94 340.9 658.79 341.28 661.17 341.82C664.38 342.55 667.71 342.54 670.7 344.1C673.06 345.32 674.78 346.73 677.54 347.33C679.615 347.958 681.608 348.827 683.48 349.92C684.64 350.48 687.65 352.54 688.93 351.46C689.52 350.96 686.6 348.76 686.13 348.16C685.27 347.04 684.78 345.54 683.87 344.5C682.695 343.43 681.411 342.485 680.04 341.68C677 339.46 673.88 337.69 671 335.26Z" fill="#BF5C43"/>
<path d="M757.39 264.1C756.829 261.103 755.643 258.258 753.91 255.75C748.31 243.75 722.09 189.14 701.69 176.11C678.69 161.43 651.51 184.71 676.25 218.37C696.05 245.31 705.06 246.17 718.17 272.61C712.66 292.5 691.39 346.45 691.01 347.22C691.55 346.12 674.11 336.66 669.73 334.22C669.97 335.09 671.21 335.75 671.91 336.34C672.844 337.044 673.606 337.95 674.14 338.99C674.04 339.2 670.4 337.51 670.14 337.48L664.14 336.81C663.413 336.68 662.668 336.68 661.94 336.81C659.88 337.35 658.94 339.67 657.27 340.81C655.6 341.95 653.41 343.12 651.55 344.24C649.21 345.66 648 347.45 646.41 349.65C645.6 350.779 644.683 351.828 643.67 352.78C642.961 353.376 642.317 354.047 641.75 354.78C641.471 355.153 641.282 355.585 641.199 356.043C641.115 356.501 641.14 356.973 641.27 357.42C641.417 357.863 641.732 358.229 642.149 358.439C642.565 358.649 643.047 358.685 643.49 358.54C641.62 359.39 639.84 361.11 638.03 362.17C636.84 362.86 634.69 364.08 634.83 365.72C634.966 366.337 635.305 366.891 635.793 367.294C636.28 367.696 636.888 367.923 637.52 367.94C638.777 367.941 640.031 367.837 641.27 367.63C641.021 368.217 640.969 368.868 641.122 369.487C641.276 370.106 641.626 370.658 642.12 371.06C643.6 372.12 646.65 370.8 646.65 370.8C646.65 370.8 645.52 372.04 646.74 372.89C647.537 373.38 648.438 373.677 649.371 373.757C650.303 373.837 651.241 373.697 652.11 373.35C657.53 371.57 668.26 366.48 670.34 366.35C671.789 366.338 673.228 366.599 674.58 367.12C679.18 368.613 683.697 370.323 688.13 372.25C690.13 373.1 692.13 374.02 694.26 373.74C696.234 373.312 698.045 372.33 699.48 370.91L700.21 370.29C710.78 361.21 718.69 349.14 726.21 337.57C734.457 324.88 741.747 311.593 748.02 297.82C753.55 285.64 756.02 279.53 757.48 266.41C757.574 265.64 757.544 264.86 757.39 264.1Z" fill="#E8A984"/>
<path d="M641.63 367.33C642.04 367.14 656.92 358.16 662.27 353.33" stroke="#BF5C43" stroke-width="0.75" stroke-linecap="round" stroke-linejoin="round"/>
<path d="M646.76 370.76C657.06 366.82 660.18 360.97 663.88 360.26" stroke="#BF5C43" stroke-width="0.75" stroke-linecap="round" stroke-linejoin="round"/>
<path d="M658.87 346.39C656.87 347.82 643.26 359.34 641.77 359.9" stroke="#BF5C43" stroke-width="0.75" stroke-linecap="round" stroke-linejoin="round"/>
<path d="M667.06 341.17C665.821 341.291 664.606 341.587 663.45 342.05" stroke="#BF5C43" stroke-width="0.75" stroke-linecap="round" stroke-linejoin="round"/>
<path d="M690.32 347C690.84 348.19 691.7 351.16 692.21 352.35" stroke="#BF5C43" stroke-width="0.75" stroke-linecap="round" stroke-linejoin="round"/>
<path d="M667 335.59C669.19 336.08 672.61 338.15 674.63 339.14" stroke="#BF5C43" stroke-width="0.75" stroke-linecap="round" stroke-linejoin="round"/>
<path d="M732.86 272.73C729.66 271.53 726.05 271.5 723.4 270.91C720.32 270.21 720.4 270.14 716.28 268.08C716.68 268.96 717.59 272.17 718.44 272.53C719.29 272.89 732.1 271.94 732.86 272.73Z" fill="#BF5C43"/>
<path d="M703.33 168.7C694.33 155.18 674.46 152.7 662.94 150.77C658.94 150.1 652.75 149.66 652.75 149.66C652.75 149.66 639.01 175.36 606.44 171.37C589.51 169.3 591.08 150.71 589.6 150.77C583.84 150.99 582.53 151 573.39 151.33C561.21 151.77 551.91 164.79 543.61 175.33C534.68 186.66 517.54 213.14 514.22 216.24C514.22 216.24 530.11 253.96 551.55 255.55C553.93 266.67 556.07 275.38 556.82 280.16C559.06 294.58 557.92 300 559.47 309.52C561.02 319.04 581.92 318.61 608.06 318.83C633.66 319.05 666.98 318.55 671.43 313.66C674.77 309.99 681.43 262.58 679.95 248.37L687.7 271.37C687.7 271.37 690.2 275.74 704.84 270.16C722.84 263.29 748.26 242.16 748.26 242.16C748.26 242.16 723.5 189.06 703.33 168.7Z" fill="white"/>
<path d="M551.72 256C550.03 248 548.56 238.71 548.72 231.17C549.16 212.11 560.19 200.17 560.19 190.72" stroke="#EBEDF5" stroke-width="1.3" stroke-linecap="round" stroke-linejoin="round"/>
<path d="M679.13 246.81C680.02 249.81 672.04 229.68 668.79 222.59" stroke="#EBEDF5" stroke-width="1.3" stroke-linecap="round" stroke-linejoin="round"/>
<path d="M705.83 156.11C703.83 152.52 699.45 150.92 697.69 147.11C696.22 143.96 697.27 140.3 697.92 136.88C699.811 127.201 697.879 117.165 692.53 108.88C689.98 105.06 686.71 101.79 683.73 98.29L683 97.42C679.303 92.9644 676.067 88.1466 673.34 83.04C670.617 77.988 668.167 72.7939 666 67.48C664 62.48 660.68 58.17 660.09 52.65C662.09 54.97 664.127 57.2466 666.2 59.48C667.231 60.7103 668.454 61.7671 669.82 62.61C671.341 63.4468 673.096 63.7578 674.812 63.4946C676.528 63.2315 678.11 62.4089 679.31 61.1547C680.511 59.9005 681.264 58.285 681.452 56.559C681.64 54.833 681.252 53.0932 680.35 51.61C681.142 49.5361 681.356 47.2861 680.97 45.1C679.66 38.01 670.09 30.53 662.82 31.7C661.011 32.009 659.307 32.7631 657.861 33.8942C656.416 35.0253 655.275 36.4981 654.54 38.18C654.12 39.18 653.76 40.32 652.81 40.84C651.86 41.36 645.15 34.41 643.62 33.3C639.29 30.18 634.53 29.52 629.25 29.15C618.32 28.39 607.35 30.31 596.72 32.68C586.84 34.88 577.16 36.68 570.72 45.3C566.623 50.9298 564.672 57.8386 565.22 64.78C566.03 75.37 567.56 83.29 562.04 93.08C559.23 98.08 555.77 102.73 553.7 108.08C551.634 113.425 551.036 119.226 551.97 124.88C552.66 129.05 555.16 133.82 559.39 133.88C558.74 133.059 558.251 132.123 557.95 131.12C558.264 131.854 558.8 132.471 559.484 132.884C560.168 133.297 560.964 133.484 561.76 133.42C560.316 130.132 559.824 126.504 560.34 122.95C560.22 123.76 563.04 127.55 563.42 128.69C564.156 131.085 564.494 133.585 564.42 136.09C564.32 140.91 561.04 153.76 558.75 158.01C559.94 157.42 563.02 157.01 564.93 164.7C565.66 167.64 568.54 169.86 571.52 170.42C574.5 170.98 577.89 169.42 578.9 166.52C578.448 168.153 577.614 169.655 576.469 170.903C575.323 172.151 573.898 173.11 572.31 173.7C575.015 173.985 577.742 173.437 580.126 172.129C582.51 170.82 584.438 168.814 585.65 166.38C588.11 161.21 588.65 158.06 593.65 154.96C598.07 152.22 597.92 132.51 596.8 128.06C596.775 127.975 596.775 127.885 596.8 127.8C596.8 127.31 596.8 126.8 596.74 126.45C592.746 126.807 588.727 126.773 584.74 126.35C581.42 125.9 579.04 125.83 576.43 123.35C575.43 122.35 574.23 121.6 573.43 116.96C573.14 115.23 571.99 108.4 571.71 106.67C568.25 85.38 572.83 78.38 573.81 76.04C575.014 72.795 575.528 69.3348 575.32 65.88C574.57 60.36 576.51 56.77 579.76 52.35C581.697 49.9721 583.987 47.9048 586.55 46.22C587.823 45.2885 589.16 44.4465 590.55 43.7C591.065 43.357 591.628 43.0909 592.22 42.91C592.39 42.91 593.85 42.91 593.71 43.05C594.11 42.77 594.06 42.17 594.28 41.74C594.411 41.5522 594.58 41.3946 594.777 41.2779C594.974 41.1612 595.193 41.0881 595.421 41.0634C595.648 41.0388 595.878 41.0632 596.095 41.1351C596.313 41.2069 596.512 41.3245 596.68 41.48C597.333 42.153 597.768 43.0065 597.93 43.93C601.4 56.38 604.93 69.15 611.42 80.44C613.97 84.89 617.74 89.37 622.86 89.82C624.35 89.94 626.13 89.82 627.01 91.04C627.274 91.4453 627.461 91.8964 627.56 92.37C629.96 101.37 630.14 113.72 623.11 120.75C623.97 119.89 630.27 122.87 624.58 125.24C625.867 125.47 627.188 125.438 628.463 125.145C629.737 124.852 630.94 124.304 631.997 123.534C633.055 122.764 633.945 121.789 634.616 120.666C635.287 119.543 635.724 118.296 635.9 117C635.51 123.33 632.98 129.31 630.51 135.15C626.17 145.41 623.8 154.82 627.66 165.71C628.336 168.088 629.708 170.208 631.6 171.8C632.01 172.106 632.47 172.339 632.96 172.49C633.85 177.79 636.02 182.7 641.11 185.49C643.81 186.96 646.98 187.49 649.56 189.13C652.14 190.77 653.93 194.47 652.1 196.93C653 196.706 653.82 196.235 654.469 195.571C655.117 194.907 655.567 194.076 655.77 193.17C655.946 194.055 655.863 194.971 655.53 195.81C659.53 194.29 664.05 188.21 664.13 183.87C664.19 180.41 661.13 177.87 659.23 174.97C657.446 172.225 656.542 169.001 656.641 165.729C656.739 162.457 657.834 159.293 659.78 156.66C657.5 164.51 659.05 173.66 664.78 179.53C672.23 187.17 689.47 187.28 693.95 176.27C694.95 173.78 695.23 169.78 698.41 169.01C700.23 168.57 706.19 170.83 707.22 172.53C708.77 167.38 708.48 160.9 705.83 156.11ZM680.07 52.17C680.157 53.1306 680.02 54.0984 679.671 54.9976C679.322 55.8967 678.769 56.7028 678.056 57.3526C677.343 58.0025 676.49 58.4786 675.562 58.7436C674.635 59.0085 673.658 59.0552 672.71 58.88C674.364 58.39 675.885 57.5317 677.16 56.3696C678.435 55.2074 679.43 53.7716 680.07 52.17ZM630.88 153.07C631.61 152.95 632.01 153.89 632.12 154.62C632.7 158.34 632.42 161.96 632.42 165.62C630.606 161.701 630.067 157.311 630.88 153.07Z" fill="#181F38"/>
<path d="M321.35 149.67V645.6C321.35 705.7 369.93 754.88 429.35 754.88C488.77 754.88 537.35 705.7 537.35 645.6V149.67" fill="#08CF65"/>
<path d="M394.27 186.67H448.58" stroke="#EBF5F3" stroke-width="1.3" stroke-linecap="round" stroke-linejoin="round"/>
<path d="M394.27 196.09H487.08" stroke="#EBF5F3" stroke-width="1.3" stroke-linecap="round" stroke-linejoin="round"/>
<path d="M370.46 182.23H352.16V200.53H370.46V182.23Z" fill="#EBF5F3"/>
<path d="M394.27 220.89H498.62" stroke="#04454D" stroke-width="1.3" stroke-linecap="round" stroke-linejoin="round"/>
<path d="M394.27 230.31H465.26" stroke="#04454D" stroke-width="1.3" stroke-linecap="round" stroke-linejoin="round"/>
<path d="M370.46 216.45H352.16V234.75H370.46V216.45Z" fill="#04454D"/>
<path d="M356.1 224.45L360.43 228.78L366.28 222.93" stroke="#EBF5F3" stroke-width="1.3" stroke-linecap="round" stroke-linejoin="round"/>
<path d="M394.27 255.11H434.04" stroke="#EBF5F3" stroke-width="1.3" stroke-linecap="round" stroke-linejoin="round"/>
<path d="M394.27 264.53H425.34" stroke="#EBF5F3" stroke-width="1.3" stroke-linecap="round" stroke-linejoin="round"/>
<path d="M370.46 250.67H352.16V268.97H370.46V250.67Z" fill="#EBF5F3"/>
<path d="M394.27 289.33H501.28" stroke="#04454D" stroke-width="1.3" stroke-linecap="round" stroke-linejoin="round"/>
<path d="M394.27 298.75H487.08" stroke="#04454D" stroke-width="1.3" stroke-linecap="round" stroke-linejoin="round"/>
<path d="M370.46 284.89H352.16V303.19H370.46V284.89Z" fill="#04454D"/>
<path d="M355.88 292.81L360.21 297.14L366.06 291.29" stroke="#EBF5F3" stroke-width="1.3" stroke-linecap="round" stroke-linejoin="round"/>
<path d="M394.27 323.56H487.08" stroke="#04454D" stroke-width="1.3" stroke-linecap="round" stroke-linejoin="round"/>
<path d="M394.27 332.97H458.87" stroke="#04454D" stroke-width="1.3" stroke-linecap="round" stroke-linejoin="round"/>
<path d="M370.46 319.12H352.16V337.42H370.46V319.12Z" fill="#04454D"/>
<path d="M356.21 326.99L360.54 331.32L366.39 325.47" stroke="#EBF5F3" stroke-width="1.3" stroke-linecap="round" stroke-linejoin="round"/>
<path d="M394.27 357.78H472.54" stroke="#04454D" stroke-width="1.3" stroke-linecap="round" stroke-linejoin="round"/>
<path d="M394.27 367.2H487.08" stroke="#04454D" stroke-width="1.3" stroke-linecap="round" stroke-linejoin="round"/>
<path d="M370.46 353.34H352.16V371.64H370.46V353.34Z" fill="#04454D"/>
<path d="M356.11 361.45L360.44 365.78L366.28 359.94" stroke="#EBF5F3" stroke-width="1.3" stroke-linecap="round" stroke-linejoin="round"/>
<path d="M394.27 392H487.08" stroke="#EBF5F3" stroke-width="1.3" stroke-linecap="round" stroke-linejoin="round"/>
<path d="M394.27 401.42H487.08" stroke="#EBF5F3" stroke-width="1.3" stroke-linecap="round" stroke-linejoin="round"/>
<path d="M370.46 387.56H352.16V405.86H370.46V387.56Z" fill="#EBF5F3"/>
<path d="M394.27 426.22H441.66" stroke="#EBF5F3" stroke-width="1.3" stroke-linecap="round" stroke-linejoin="round"/>
<path d="M394.27 435.64H434.57" stroke="#EBF5F3" stroke-width="1.3" stroke-linecap="round" stroke-linejoin="round"/>
<path d="M370.46 421.78H352.16V440.08H370.46V421.78Z" fill="#EBF5F3"/>
<path d="M394.27 460.44H487.08" stroke="#EBF5F3" stroke-width="1.3" stroke-linecap="round" stroke-linejoin="round"/>
<path d="M394.27 469.86H487.08" stroke="#EBF5F3" stroke-width="1.3" stroke-linecap="round" stroke-linejoin="round"/>
<path d="M370.46 456H352.16V474.3H370.46V456Z" fill="#EBF5F3"/>
<path d="M394.27 494.66H456.21" stroke="#04454D" stroke-width="1.3" stroke-linecap="round" stroke-linejoin="round"/>
<path d="M394.27 504.08H444.15" stroke="#04454D" stroke-width="1.3" stroke-linecap="round" stroke-linejoin="round"/>
<path d="M370.46 490.22H352.16V508.52H370.46V490.22Z" fill="#04454D"/>
<path d="M356.3 498.29L360.63 502.62L366.48 496.77" stroke="#EBF5F3" stroke-width="1.3" stroke-linecap="round" stroke-linejoin="round"/>
<path d="M394.27 528.89H452.67" stroke="#04454D" stroke-width="1.3" stroke-linecap="round" stroke-linejoin="round"/>
<path d="M394.27 538.3H447.7" stroke="#04454D" stroke-width="1.3" stroke-linecap="round" stroke-linejoin="round"/>
<path d="M370.46 524.45H352.16V542.75H370.46V524.45Z" fill="#04454D"/>
<path d="M356.24 532.29L360.57 536.62L366.42 530.77" stroke="#EBF5F3" stroke-width="1.3" stroke-linecap="round" stroke-linejoin="round"/>
<path d="M394.27 563.11H487.08" stroke="#EBF5F3" stroke-width="1.3" stroke-linecap="round" stroke-linejoin="round"/>
<path d="M394.27 572.53H462.25" stroke="#EBF5F3" stroke-width="1.3" stroke-linecap="round" stroke-linejoin="round"/>
<path d="M370.46 558.67H352.16V576.97H370.46V558.67Z" fill="#EBF5F3"/>
<path d="M394.27 597.33H487.08" stroke="#EBF5F3" stroke-width="1.3" stroke-linecap="round" stroke-linejoin="round"/>
<path d="M394.27 606.75H487.08" stroke="#EBF5F3" stroke-width="1.3" stroke-linecap="round" stroke-linejoin="round"/>
<path d="M370.46 592.89H352.16V611.19H370.46V592.89Z" fill="#EBF5F3"/>
<path d="M394.27 631.55H460.65" stroke="#EBF5F3" stroke-width="1.3" stroke-linecap="round" stroke-linejoin="round"/>
<path d="M394.27 640.97H474.49" stroke="#EBF5F3" stroke-width="1.3" stroke-linecap="round" stroke-linejoin="round"/>
<path d="M370.46 627.11H352.16V645.41H370.46V627.11Z" fill="#EBF5F3"/>
<path d="M394.27 665.77H487.08" stroke="#EBF5F3" stroke-width="1.3" stroke-linecap="round" stroke-linejoin="round"/>
<path d="M394.27 675.19H458.52" stroke="#EBF5F3" stroke-width="1.3" stroke-linecap="round" stroke-linejoin="round"/>
<path d="M370.46 661.33H352.16V679.63H370.46V661.33Z" fill="#EBF5F3"/>
<path d="M422.8 142.75C421.963 142.096 420.984 141.648 419.942 141.441C418.9 141.234 417.824 141.275 416.8 141.56C415.16 142.44 410.92 151.93 409.64 155.34C408.36 158.75 413.94 159.83 417.13 155.44C418.358 153.776 419.304 151.921 419.93 149.95H421.86C421.86 149.95 415.77 162.46 416.77 164.47C417.77 166.48 423.25 166.08 425.77 161.21C432.29 148.67 433.19 149.76 433.19 149.76L432 153.88C432 153.88 429.49 159.52 433.29 159.77C436.7 159.99 438.68 158.19 439.98 154.86C441.82 150.13 443.15 149.77 443.15 149.77H445.57C445.57 149.77 442.63 144.48 441.14 144.3C440.26 144.19 439.31 144.09 438.57 144.05C435.48 143.91 434.57 147.31 434.57 147.31C434.063 145.826 433.252 144.464 432.19 143.31C431.55 142.76 429.35 142.67 428.19 142.67C425.76 142.67 424.19 146.29 424.19 146.29C423.846 145.067 423.38 143.881 422.8 142.75Z" fill="#E8A984"/>
<path d="M412.5 149.72C411.14 152.29 407.08 153.29 407.31 150.77C408.44 147.39 408.69 146.42 409.24 145.87C409.894 145.192 410.782 144.789 411.722 144.745C412.663 144.7 413.585 145.017 414.3 145.63L412.5 149.72Z" fill="#E8A984"/>
<path d="M445.86 149.78C445.86 149.78 445.36 146.32 446.02 144.71C446.81 142.79 448.82 142.31 450.69 143.4C452.19 144.27 454.89 149.78 454.89 149.78C454.89 149.78 445.78 149.7 445.86 149.78Z" fill="#E8A984"/>
<path d="M414 145.77L411.52 150.88" stroke="#BF5C43" stroke-width="1.3" stroke-linecap="round" stroke-linejoin="round"/>
<path d="M423.89 146.23L421.41 151.35" stroke="#BF5C43" stroke-width="1.3" stroke-linecap="round" stroke-linejoin="round"/>
<path d="M419.66 150.62C420.107 149.464 420.642 148.344 421.26 147.27C423.15 147.4 421.86 149.92 421.86 149.92L420.05 149.97L419.66 150.62Z" fill="#BF5C43"/>
<path d="M437.53 144.05C437.53 144.05 435.33 144.63 434.1 147.73C432.87 150.83 431.98 153.88 431.98 153.88" stroke="#BF5C43" stroke-width="1.3" stroke-linecap="round" stroke-linejoin="round"/>
</g>
<defs>
<clipPath id="clip0">
<rect width="763.11" height="900" fill="white"/>
</clipPath>
</defs>
</svg>
