<?xml version="1.0" standalone="no"?>
<!DOCTYPE svg PUBLIC "-//W3C//DTD SVG 20010904//EN"
 "http://www.w3.org/TR/2001/REC-SVG-20010904/DTD/svg10.dtd">
<svg version="1.0" xmlns="http://www.w3.org/2000/svg"
 width="579.000000pt" height="406.000000pt" viewBox="0 0 579.000000 406.000000"
 preserveAspectRatio="xMidYMid meet">
<metadata>
Created by potrace 1.16, written by Peter Selinger 2001-2019
</metadata>
<g transform="translate(0.000000,406.000000) scale(0.100000,-0.100000)"
fill="#000000" stroke="none">
<path d="M1390 4052 c0 -6 20 -51 43 -99 24 -48 59 -121 78 -160 19 -40 39
-73 44 -73 6 0 17 -16 24 -35 12 -35 238 -506 246 -513 8 -9 129 -30 141 -25
7 3 18 1 25 -3 7 -4 28 -9 48 -11 20 -2 50 -6 66 -7 17 -2 32 -5 35 -6 3 -1 8
-2 13 -1 4 1 28 -4 55 -10 26 -6 79 -12 117 -14 39 -2 78 -4 88 -4 11 -1 17
-9 17 -23 0 -16 3 -19 9 -10 6 10 24 12 72 7 35 -4 67 -9 71 -11 5 -3 8 11 8
31 0 41 -13 49 -100 59 -30 4 -82 11 -115 16 -33 5 -98 14 -145 20 -93 12
-177 24 -286 41 -65 9 -72 13 -86 42 -9 18 -91 184 -182 370 l-165 338 47 -6
c26 -3 74 -10 107 -15 33 -5 98 -14 145 -20 47 -6 112 -15 145 -20 33 -5 98
-14 145 -20 47 -6 116 -16 154 -22 l69 -12 179 -362 c98 -200 178 -366 178
-369 0 -4 -14 -5 -30 -3 -31 5 -31 4 -28 -35 3 -38 5 -40 40 -44 21 -2 58 -7
83 -12 41 -8 46 -7 41 8 -4 11 -2 11 9 -3 9 -12 15 -15 15 -7 0 13 -178 381
-344 711 -106 209 -82 189 -251 210 -55 6 -125 16 -155 20 -30 5 -93 14 -140
20 -47 6 -112 15 -145 20 -33 5 -96 14 -140 21 -44 6 -87 12 -95 14 -64 12
-150 16 -150 7z"/>
<path d="M320 3463 c-119 -21 -208 -73 -260 -154 -54 -83 -63 -126 -58 -280 3
-127 5 -136 33 -183 27 -46 80 -106 93 -106 3 0 -10 17 -29 38 l-34 37 37 -34
c21 -19 35 -38 32 -42 -6 -10 58 -51 103 -67 21 -7 157 -11 388 -12 349 -1
357 -1 408 -24 59 -26 128 -95 152 -153 25 -58 22 -163 -9 -253 -13 -41 -70
-208 -126 -370 -55 -162 -132 -387 -170 -500 -37 -113 -118 -353 -179 -533
-61 -180 -111 -333 -111 -339 0 -6 -8 -17 -18 -24 -28 -20 -24 -161 7 -239 29
-73 113 -161 186 -196 46 -21 63 -23 210 -24 155 0 162 1 220 28 67 31 125 82
160 142 13 22 44 101 69 175 25 74 77 227 116 340 39 113 72 212 75 220 3 13
150 443 201 589 9 24 13 55 9 70 -4 19 -3 22 4 11 9 -13 10 -13 14 0 14 48 52
163 72 215 12 33 34 96 48 140 14 44 37 112 50 150 14 39 32 93 41 120 8 28
47 142 86 255 39 113 73 212 75 220 2 8 11 33 19 55 21 56 20 70 -9 83 -36 17
-42 15 -48 -10 -3 -13 -39 -122 -80 -243 -161 -470 -371 -1088 -427 -1255 -33
-96 -100 -294 -150 -440 -50 -146 -118 -346 -151 -445 -65 -192 -79 -222 -131
-272 -62 -60 -107 -73 -261 -73 -126 0 -142 2 -185 24 -101 52 -162 145 -162
250 0 64 0 64 335 1051 339 998 320 934 304 1021 -23 125 -96 221 -208 272
l-56 26 -370 6 c-364 5 -371 6 -410 29 -58 33 -101 78 -127 130 -20 40 -23 61
-23 171 0 109 3 130 22 165 29 55 90 114 143 139 44 20 61 21 614 26 l569 5
-48 38 -48 37 -491 -1 c-270 -1 -502 -4 -516 -6z"/>
<path d="M2219 2577 c-7 -16 -6 -38 6 -82 9 -33 25 -91 35 -130 10 -38 26 -97
35 -130 10 -33 21 -73 25 -90 5 -16 15 -55 23 -85 15 -54 46 -168 72 -265 7
-27 27 -100 44 -162 29 -107 39 -142 96 -358 15 -55 33 -122 41 -150 17 -61
69 -255 94 -350 10 -38 26 -97 35 -130 22 -76 27 -98 59 -220 15 -55 35 -129
45 -165 10 -36 29 -102 41 -148 23 -83 42 -108 74 -96 29 11 31 54 7 117 -6
15 -8 27 -6 27 2 0 0 12 -7 28 -6 15 -14 43 -19 62 -4 19 -13 53 -19 75 -6 22
-15 56 -20 75 -26 109 -72 275 -81 292 -6 11 -8 22 -5 25 2 3 0 17 -6 32 -5
14 -16 49 -23 76 -8 28 -23 86 -35 130 -12 44 -23 87 -25 95 -16 64 -45 170
-53 195 -6 17 -19 66 -31 110 -12 44 -35 130 -52 190 -17 61 -32 119 -34 130
-2 11 -11 45 -20 75 -9 30 -18 66 -21 80 -2 14 -7 32 -10 40 -4 8 -10 29 -14
45 -5 17 -16 57 -25 90 -9 33 -18 67 -20 75 -8 34 -24 99 -40 155 -9 33 -19
71 -21 84 -3 14 -8 29 -11 34 -4 7 -18 56 -53 196 -14 54 -62 71 -81 28z"/>
<path d="M3049 1393 c3 -123 3 -127 -15 -113 -11 8 -23 20 -29 26 -29 33 -141
25 -155 -10 -5 -12 -9 -17 -9 -12 -1 12 -34 -31 -57 -74 -24 -46 -25 -208 -1
-260 18 -41 62 -85 95 -95 12 -3 22 -11 22 -16 0 -15 57 -10 73 6 11 10 17 11
19 3 2 -6 18 4 36 23 l32 34 0 -32 c0 -33 0 -33 50 -33 l50 0 0 340 0 340 -57
0 -58 0 4 -127z m-25 -178 c25 -23 26 -28 26 -135 0 -106 -1 -112 -26 -137
-21 -21 -32 -24 -62 -20 -48 8 -79 44 -90 106 -14 76 4 155 44 195 24 24 77
20 108 -9z"/>
<path d="M5680 1499 c0 -5 3 -8 8 -6 4 3 6 -50 4 -116 -3 -117 -4 -121 -21
-101 -37 46 -120 59 -153 24 -10 -11 -23 -20 -28 -20 -15 0 -51 -43 -70 -83
-11 -25 -18 -66 -19 -120 -2 -93 21 -155 79 -214 29 -31 36 -33 96 -33 56 0
68 3 88 25 29 31 38 32 34 3 -3 -21 2 -23 45 -26 l47 -3 0 340 0 341 -55 0
c-32 0 -55 -4 -55 -11z m-31 -284 c38 -19 41 -30 41 -149 0 -94 -2 -104 -23
-124 -39 -37 -78 -38 -114 -5 -63 59 -69 187 -12 256 34 41 62 47 108 22z"/>
<path d="M3761 1328 c-32 -9 -93 -48 -81 -51 2 -1 -3 -13 -13 -27 -26 -38 -22
-60 11 -60 15 0 33 -5 39 -11 13 -13 43 15 43 41 0 21 19 30 65 30 46 0 65
-22 65 -75 l0 -43 -59 5 c-58 6 -125 -9 -146 -31 -44 -48 -58 -132 -31 -185
40 -76 181 -101 223 -41 17 24 33 26 33 5 0 -10 10 -15 30 -15 17 0 39 -5 50
-12 28 -18 35 -3 22 47 -7 25 -12 111 -12 193 -1 129 -3 150 -19 170 -20 24
-37 30 -25 10 4 -8 3 -10 -2 -5 -5 5 -9 14 -9 20 0 15 -49 40 -53 27 -2 -6 -8
-10 -13 -10 -6 0 -8 4 -5 9 13 21 -53 27 -113 9z m129 -306 c0 -38 -5 -53 -22
-69 -32 -28 -53 -40 -43 -23 6 9 4 12 -6 8 -22 -9 -75 17 -81 39 -7 28 9 64
32 70 11 3 20 9 20 14 0 5 23 9 50 9 l50 0 0 -48z"/>
<path d="M4689 1334 c-1 -5 -1 -12 0 -16 2 -11 -17 -10 -21 2 -7 20 -70 -24
-91 -64 -67 -127 -60 -275 17 -352 34 -34 103 -59 142 -51 13 2 21 0 18 -4 -3
-5 10 -6 28 -3 63 12 138 89 138 142 0 20 -5 22 -50 22 -43 0 -50 -3 -50 -19
0 -21 -61 -75 -70 -63 -3 4 -16 8 -30 10 -14 1 -38 16 -55 32 -27 27 -29 35
-30 103 0 71 23 150 50 169 36 26 117 -9 135 -58 6 -16 18 -24 32 -24 13 0 33
-3 46 -6 19 -6 22 -3 22 23 0 30 -47 113 -64 113 -5 0 -1 -10 10 -22 17 -21
16 -21 -9 1 -27 24 -36 38 -17 26 6 -3 10 -2 10 3 0 21 -158 56 -161 36z"/>
<path d="M3205 1320 c-6 -10 1 -14 18 -11 5 1 6 -3 2 -8 -3 -6 17 -79 45 -163
90 -268 90 -268 116 -268 12 0 26 -4 29 -10 10 -15 65 -12 65 4 0 7 14 53 30
102 17 49 32 96 35 104 2 8 22 67 44 130 23 63 41 118 41 121 0 4 -30 6 -67 5
-65 -1 -68 -2 -69 -26 -1 -14 -11 -59 -23 -100 -13 -41 -32 -106 -43 -144 -21
-72 -38 -76 -38 -9 0 18 -4 42 -9 55 -5 13 -14 43 -21 68 -7 25 -16 56 -20 70
-5 14 -11 38 -15 54 -5 23 -8 27 -16 15 -7 -12 -9 -11 -9 4 0 14 -9 17 -44 17
-25 0 -48 -4 -51 -10z"/>
<path d="M4264 1320 c-18 -6 -39 -21 -48 -35 -22 -34 -37 -32 -29 5 l6 30 -49
0 -49 0 0 -240 0 -240 47 0 47 0 0 168 0 167 29 33 c50 53 118 41 143 -25 5
-13 9 -92 9 -174 l0 -149 48 -2 47 -1 -45 -7 -45 -7 48 -1 48 -2 -1 188 c-2
205 -8 235 -60 272 -34 24 -103 33 -146 20z"/>
<path d="M5104 1320 c-17 -6 -46 -24 -63 -42 -127 -130 -98 -370 52 -418 20
-6 37 -16 37 -21 0 -17 90 -7 100 10 5 9 10 11 10 4 0 -9 8 -9 31 -1 20 7 28
15 25 25 -4 8 -1 11 5 8 12 -8 49 22 49 40 0 6 -13 21 -29 33 l-30 22 -31 -31
c-28 -28 -35 -31 -73 -25 -66 10 -100 42 -122 115 l-7 23 152 -3 153 -4 -7 75
c-7 84 -36 140 -91 171 -37 22 -120 31 -161 19z m113 -95 c19 -13 51 -92 41
-100 -2 -1 -45 0 -95 3 l-93 4 7 27 c12 50 44 81 83 81 19 0 45 -7 57 -15z"/>
<path d="M4098 715 c2 -65 0 -115 -5 -115 -5 0 -20 11 -33 25 -21 23 -31 26
-80 23 -35 -2 -54 -7 -53 -14 1 -7 -8 -15 -21 -18 -49 -12 -86 -98 -86 -204 0
-148 69 -228 190 -219 37 3 54 10 69 28 l20 24 1 -22 c0 -17 6 -23 23 -23 12
0 32 -3 45 -6 l22 -6 0 321 0 321 -47 0 -48 0 3 -115z m-21 -180 c21 -23 23
-37 23 -122 l0 -96 -36 -33 c-23 -23 -44 -34 -62 -33 -27 1 -27 1 3 8 l30 7
-36 7 c-56 11 -71 36 -77 120 -4 63 -1 82 19 126 l24 53 45 -5 c32 -4 51 -12
67 -32z"/>
<path d="M3079 643 c-1 -5 -1 -11 0 -15 0 -5 -7 -8 -18 -8 -23 0 -64 -38 -87
-81 -13 -25 -18 -57 -18 -124 -1 -80 3 -96 26 -135 36 -62 84 -87 170 -88 98
-1 143 35 173 136 6 21 4 22 -50 22 -35 0 -54 -4 -50 -10 19 -30 -47 -91 -96
-89 -21 1 -20 2 6 9 l30 8 -28 1 c-40 1 -83 50 -91 102 -8 52 1 103 28 154 18
35 26 41 59 43 30 3 42 -2 67 -26 17 -17 30 -38 30 -46 0 -10 9 -16 26 -16 14
0 34 -5 45 -10 17 -10 19 -7 19 19 0 61 -41 123 -99 147 -35 15 -140 20 -142
7z"/>
<path d="M3488 632 c-7 -9 -25 -23 -41 -29 -24 -11 -67 -77 -56 -86 2 -3 25
-7 52 -10 35 -5 47 -3 47 7 0 7 9 23 20 36 44 50 120 16 120 -54 l0 -32 -62 0
c-80 0 -108 -5 -108 -20 0 -6 -11 -16 -26 -22 -26 -12 -54 -65 -54 -103 0 -58
53 -117 114 -126 17 -2 37 -6 44 -8 7 -3 10 0 7 6 -4 6 3 7 21 3 21 -5 31 -2
46 17 16 22 20 22 31 8 6 -9 34 -19 61 -23 48 -7 49 -7 41 16 -4 13 -10 97
-14 188 -7 187 -14 207 -82 234 -55 22 -144 21 -161 -2z m142 -276 c0 -51 -3
-57 -33 -80 -19 -15 -45 -26 -58 -25 l-24 1 25 8 c21 7 22 8 5 9 -62 3 -85 67
-40 115 20 21 33 26 75 26 l50 0 0 -54z"/>
<path d="M4397 639 c-9 -6 -15 -14 -12 -20 4 -5 0 -9 -8 -9 -15 0 -59 -44 -74
-75 -6 -11 -16 -44 -23 -72 -20 -87 14 -189 78 -237 27 -21 156 -51 146 -34
-4 5 8 7 28 3 27 -5 41 0 76 25 23 18 42 37 42 44 0 7 -13 25 -30 41 -27 26
-30 27 -37 9 -4 -10 -14 -24 -22 -31 -22 -17 -102 -16 -128 2 -21 14 -63 75
-63 90 0 4 65 5 145 3 l145 -3 0 61 c0 82 -39 160 -95 191 -43 25 -135 31
-168 12z m126 -91 c14 -13 30 -38 36 -56 9 -30 8 -34 -15 -42 -14 -6 -60 -9
-102 -8 l-77 2 85 6 85 6 -77 2 c-81 2 -87 6 -67 45 34 66 89 84 132 45z"/>
<path d="M4878 633 c-7 -10 -23 -24 -36 -31 -20 -11 -22 -10 -19 10 2 21 -3
23 -52 26 -46 3 -53 1 -47 -13 3 -9 6 -110 6 -223 l0 -207 50 -1 50 -1 0 169
c0 141 2 170 15 174 8 4 15 12 15 20 0 17 46 19 85 4 44 -17 55 -62 55 -222
l0 -143 45 -2 45 -2 0 163 c0 133 3 166 15 176 8 7 15 18 15 25 0 10 14 13 46
11 71 -4 74 -12 74 -205 l0 -166 50 -2 50 -2 0 167 c0 92 -4 182 -10 201 -10
37 -50 78 -84 87 -38 9 -111 0 -108 -13 1 -7 -4 -13 -12 -13 -7 0 -25 -9 -39
-20 -30 -24 -37 -25 -37 -6 0 8 -12 24 -26 35 -35 28 -126 30 -146 4z"/>
<path d="M5392 623 c8 -10 45 -110 83 -222 63 -189 67 -206 56 -242 -12 -38
-55 -79 -85 -79 -11 0 -16 -9 -16 -31 0 -30 2 -31 34 -27 19 2 32 0 30 -4 -8
-12 4 -10 42 8 41 19 77 85 109 194 8 27 47 144 86 260 59 171 59 160 -4 160
l-53 0 -22 -82 c-12 -46 -29 -113 -39 -150 -10 -38 -23 -68 -29 -68 -6 0 -14
25 -18 55 -3 30 -10 65 -15 77 -5 13 -14 43 -21 68 -28 102 -26 100 -93 100
-56 0 -59 -1 -45 -17z"/>
</g>
</svg>
